<svg width="258" height="335" viewBox="0 0 258 335" fill="none" xmlns="http://www.w3.org/2000/svg">
<mask id="path-1-outside-1_624_39" maskUnits="userSpaceOnUse" x="220.867" y="179.363" width="149.316" height="142.811" fill="black">
<rect fill="white" x="220.867" y="179.363" width="149.316" height="142.811"/>
<path d="M247.809 249.274C240.954 243.254 237.236 236.709 236.657 229.64C236.077 222.57 238.722 215.693 244.593 209.007L266.185 184.417L281.258 197.652L260.059 221.796C257.068 225.203 255.554 228.172 255.518 230.704C255.519 233.193 256.562 235.354 258.649 237.186C260.778 239.056 263.056 239.811 265.482 239.453C267.988 239.09 270.736 237.205 273.728 233.798L294.927 209.654L309.745 222.666L288.153 247.256C282.283 253.942 275.806 257.454 268.72 257.794C261.635 258.133 254.665 255.293 247.809 249.274ZM283.784 279.052L323.042 234.341L344.567 253.241C348.74 256.905 351.74 260.746 353.567 264.763C355.436 268.818 356.08 272.852 355.497 276.865C354.952 280.835 353.165 284.545 350.136 287.994C347.108 291.443 343.66 293.695 339.794 294.749C335.927 295.803 331.844 295.687 327.544 294.4C323.324 293.108 319.128 290.63 314.955 286.966L301.797 275.413L314.168 274.85L298.858 292.287L283.784 279.052ZM312.71 276.511L312.005 263.788L324.204 274.5C326.291 276.332 328.235 277.21 330.037 277.133C331.881 277.093 333.514 276.264 334.935 274.646C336.355 273.028 336.966 271.302 336.767 269.468C336.61 267.671 335.488 265.857 333.402 264.025L321.202 253.313L333.91 252.367L312.71 276.511Z"/>
</mask>
<path d="M236.657 229.64L233.667 229.885L236.657 229.64ZM266.185 184.417L268.164 182.162L265.91 180.183L263.93 182.437L266.185 184.417ZM281.258 197.652L283.513 199.632L285.492 197.378L283.238 195.398L281.258 197.652ZM255.518 230.704L252.518 230.661L252.518 230.683L252.518 230.705L255.518 230.704ZM265.482 239.453L265.051 236.484L265.043 236.485L265.482 239.453ZM294.927 209.654L296.907 207.4L294.652 205.421L292.673 207.675L294.927 209.654ZM309.745 222.666L312 224.645L313.979 222.391L311.725 220.411L309.745 222.666ZM268.72 257.794L268.577 254.797L268.72 257.794ZM249.789 247.019C243.344 241.36 240.146 235.485 239.647 229.395L233.667 229.885C234.326 237.934 238.564 245.148 245.83 251.528L249.789 247.019ZM239.647 229.395C239.15 223.331 241.369 217.226 246.847 210.987L242.338 207.028C236.076 214.16 233.005 221.809 233.667 229.885L239.647 229.395ZM246.847 210.987L268.439 186.396L263.93 182.437L242.338 207.028L246.847 210.987ZM264.205 186.671L279.279 199.907L283.238 195.398L268.164 182.162L264.205 186.671ZM279.004 195.673L257.805 219.817L262.313 223.776L283.513 199.632L279.004 195.673ZM257.805 219.817C254.676 223.38 252.57 227.035 252.518 230.661L258.517 230.747C258.538 229.309 259.46 227.025 262.313 223.776L257.805 219.817ZM252.518 230.705C252.519 234.163 254.018 237.113 256.669 239.441L260.628 234.932C259.107 233.596 258.518 232.224 258.518 230.703L252.518 230.705ZM256.669 239.441C259.346 241.791 262.482 242.929 265.92 242.421L265.043 236.485C263.629 236.694 262.21 236.321 260.628 234.932L256.669 239.441ZM265.912 242.422C269.501 241.901 272.853 239.341 275.982 235.777L271.473 231.819C268.62 235.068 266.475 236.278 265.051 236.484L265.912 242.422ZM275.982 235.777L297.181 211.634L292.673 207.675L271.473 231.819L275.982 235.777ZM292.948 211.909L307.766 224.92L311.725 220.411L296.907 207.4L292.948 211.909ZM307.491 220.686L285.899 245.277L290.408 249.236L312 224.645L307.491 220.686ZM285.899 245.277C280.421 251.516 274.654 254.506 268.577 254.797L268.864 260.79C276.957 260.402 284.146 256.367 290.408 249.236L285.899 245.277ZM268.577 254.797C262.473 255.09 256.234 252.679 249.789 247.019L245.83 251.528C253.096 257.908 260.797 261.177 268.864 260.79L268.577 254.797ZM283.784 279.052L281.529 277.072L279.55 279.327L281.804 281.306L283.784 279.052ZM323.042 234.341L325.022 232.087L322.767 230.107L320.788 232.362L323.042 234.341ZM353.567 264.763L350.836 266.005L350.839 266.012L350.842 266.019L353.567 264.763ZM355.497 276.865L352.528 276.434L352.526 276.445L352.525 276.457L355.497 276.865ZM339.794 294.749L339.004 291.855L339.794 294.749ZM327.544 294.4L326.666 297.269L326.675 297.271L326.684 297.274L327.544 294.4ZM301.797 275.413L301.661 272.416L294.223 272.754L299.818 277.667L301.797 275.413ZM314.168 274.85L316.423 276.83L321.073 271.533L314.032 271.853L314.168 274.85ZM298.858 292.287L296.878 294.542L299.132 296.521L301.112 294.267L298.858 292.287ZM312.71 276.511L309.715 276.677L310.121 284.006L314.965 278.49L312.71 276.511ZM312.005 263.788L313.984 261.534L308.613 256.818L309.009 263.954L312.005 263.788ZM330.037 277.133L329.973 274.133L329.941 274.134L329.909 274.135L330.037 277.133ZM336.767 269.468L333.778 269.729L333.781 269.761L333.784 269.792L336.767 269.468ZM321.202 253.313L320.98 250.321L313.852 250.851L319.223 255.567L321.202 253.313ZM333.91 252.367L336.164 254.347L341.007 248.831L333.687 249.376L333.91 252.367ZM286.038 281.031L325.297 236.321L320.788 232.362L281.529 277.072L286.038 281.031ZM321.063 236.596L342.588 255.496L346.547 250.987L325.022 232.087L321.063 236.596ZM342.588 255.496C346.521 258.95 349.224 262.461 350.836 266.005L356.298 263.522C354.256 259.031 350.959 254.861 346.547 250.987L342.588 255.496ZM350.842 266.019C352.494 269.602 353.019 273.052 352.528 276.434L358.466 277.296C359.14 272.651 358.378 268.034 356.291 263.507L350.842 266.019ZM352.525 276.457C352.071 279.763 350.58 282.942 347.882 286.015L352.391 289.974C355.749 286.149 357.833 281.908 358.469 277.273L352.525 276.457ZM347.882 286.015C345.184 289.088 342.224 290.977 339.004 291.855L340.583 297.643C345.096 296.413 349.032 293.799 352.391 289.974L347.882 286.015ZM339.004 291.855C335.742 292.744 332.233 292.672 328.404 291.526L326.684 297.274C331.454 298.702 336.112 298.862 340.583 297.643L339.004 291.855ZM328.422 291.531C324.7 290.392 320.868 288.165 316.934 284.711L312.976 289.22C317.388 293.095 321.949 295.824 326.666 297.269L328.422 291.531ZM316.934 284.711L303.777 273.158L299.818 277.667L312.976 289.22L316.934 284.711ZM301.934 278.409L314.305 277.847L314.032 271.853L301.661 272.416L301.934 278.409ZM311.914 272.871L296.603 290.308L301.112 294.267L316.423 276.83L311.914 272.871ZM300.837 290.033L285.763 276.797L281.804 281.306L296.878 294.542L300.837 290.033ZM315.706 276.345L315 263.622L309.009 263.954L309.715 276.677L315.706 276.345ZM310.025 266.042L322.225 276.754L326.184 272.246L313.984 261.534L310.025 266.042ZM322.225 276.754C324.587 278.829 327.264 280.254 330.165 280.13L329.909 274.135C329.206 274.165 327.994 273.835 326.184 272.246L322.225 276.754ZM330.101 280.132C332.929 280.072 335.315 278.76 337.189 276.626L332.68 272.667C331.713 273.769 330.834 274.115 329.973 274.133L330.101 280.132ZM337.189 276.626C339.063 274.491 340.055 271.956 339.749 269.144L333.784 269.792C333.877 270.649 333.648 271.565 332.68 272.667L337.189 276.626ZM339.755 269.207C339.503 266.315 337.744 263.845 335.381 261.771L331.422 266.279C333.233 267.869 333.717 269.028 333.778 269.729L339.755 269.207ZM335.381 261.771L323.182 251.059L319.223 255.567L331.422 266.279L335.381 261.771ZM321.425 256.305L334.132 255.359L333.687 249.376L320.98 250.321L321.425 256.305ZM331.655 250.388L310.456 274.532L314.965 278.49L336.164 254.347L331.655 250.388Z" fill="white" fill-opacity="0.3" mask="url(#path-1-outside-1_624_39)"/>
<mask id="path-3-outside-2_624_39" maskUnits="userSpaceOnUse" x="8.9624" y="-7.45358" width="231.131" height="214.821" fill="black">
<rect fill="white" x="8.9624" y="-7.45358" width="231.131" height="214.821"/>
<path d="M34.0335 61.5654C30.2864 58.2752 27.0409 54.6713 24.297 50.7538C21.5531 46.8362 19.651 43.2054 18.5906 39.8611L33.0912 33.1375C34.136 36.2418 35.6206 39.3176 37.5451 42.3648C39.5495 45.4068 41.7866 48.0121 44.2563 50.1806C45.7041 51.4518 46.9073 52.3575 47.8659 52.8976C48.9045 53.4324 49.7649 53.6978 50.4473 53.6936C51.167 53.6469 51.7512 53.3681 52.1999 52.8571C52.9103 52.048 53.024 51.0167 52.5411 49.7632C52.0581 48.5096 51.2023 47.0795 49.9737 45.4728C48.8251 43.8609 47.5274 42.1182 46.0807 40.2446C44.6713 38.3284 43.3342 36.2871 42.0692 34.1206C40.8468 31.9915 39.9204 29.783 39.29 27.495C38.7022 25.2444 38.6529 22.9387 39.1421 20.578C39.6686 18.1748 40.9788 15.7809 43.0726 13.3963C45.5029 10.6285 48.4753 8.78924 51.9899 7.87843C55.5844 6.96243 59.5128 7.16914 63.7751 8.49855C68.08 9.86534 72.5318 12.5677 77.1306 16.6058C80.1539 19.2604 82.8542 22.197 85.2314 25.4155C87.6087 28.6341 89.3888 31.9316 90.5717 35.308L76.4465 42.2482C75.2044 39.1969 73.7831 36.4784 72.1827 34.0928C70.6249 31.7445 68.8666 29.7105 66.9078 27.9906C65.4601 26.7193 64.1982 25.8376 63.1222 25.3453C62.0463 24.853 61.1297 24.6515 60.3726 24.7408C59.6581 24.8675 59.0765 25.1864 58.6278 25.6973C57.9548 26.4638 57.8598 27.4738 58.3427 28.7274C58.863 29.9384 59.7162 31.3285 60.9022 32.8978C62.1309 34.5045 63.4685 36.2446 64.9153 38.1182C66.4046 40.0292 67.7604 42.0493 68.9828 44.1783C70.2052 46.3074 71.1103 48.4973 71.6981 50.7479C72.3285 53.0359 72.3991 55.3602 71.9099 57.7209C71.4207 60.0816 70.1479 62.4329 68.0915 64.7749C65.6986 67.5001 62.7049 69.3207 59.1104 70.2367C55.5959 71.1475 51.6888 70.9595 47.3891 69.6726C43.1267 68.3432 38.6749 65.6408 34.0335 61.5654ZM66.6259 88.3736L105.884 43.6632L120.958 56.8989L81.6997 101.609L66.6259 88.3736ZM117.632 134.97C114.012 131.792 111.156 128.303 109.062 124.504C107.048 120.699 105.829 116.763 105.404 112.695C105.022 108.664 105.466 104.68 106.736 100.743C108.006 96.806 110.156 93.1128 113.184 89.6638C116.213 86.2147 119.597 83.6058 123.337 81.8371C127.077 80.0685 130.991 79.1317 135.08 79.0268C139.169 78.9219 143.232 79.662 147.27 81.2469C151.388 82.8266 155.299 85.2428 159.004 88.4957C163.433 92.3841 166.717 96.5878 168.857 101.107C171.041 105.663 172.045 110.316 171.872 115.065L154.768 115.092C154.784 112.24 154.316 109.68 153.366 107.413C152.496 105.14 151.06 103.126 149.059 101.368C147.398 99.9101 145.662 98.8382 143.851 98.1528C142.082 97.5047 140.299 97.2591 138.503 97.4159C136.706 97.5727 134.954 98.1081 133.246 99.022C131.539 99.9359 129.919 101.266 128.386 103.012C126.928 104.672 125.837 106.43 125.114 108.283C124.429 110.095 124.124 111.901 124.201 113.703C124.278 115.505 124.712 117.244 125.504 118.919C126.375 120.589 127.62 122.134 129.238 123.555C130.941 125.051 132.845 126.232 134.949 127.099C137.09 127.924 139.694 128.438 142.758 128.64L142.104 146.39C137.771 145.829 133.429 144.504 129.077 142.418C124.725 140.331 120.91 137.849 117.632 134.97ZM130.693 132.977L145.611 115.987L158.705 127.484L142.104 146.39L130.693 132.977ZM150.82 162.301L190.078 117.591L202.469 128.471L201.316 175.646L195.568 170.598L219.459 143.389L234.15 156.288L194.891 200.999L182.5 190.118L183.653 142.943L189.402 147.991L165.51 175.2L150.82 162.301Z"/>
</mask>
<path d="M24.297 50.7538L26.7542 49.0327L24.297 50.7538ZM18.5906 39.8611L17.3286 37.1395L14.9327 38.2504L15.7309 40.7679L18.5906 39.8611ZM33.0912 33.1375L35.9345 32.1806L34.8666 29.0075L31.8293 30.4158L33.0912 33.1375ZM37.5451 42.3648L35.0086 43.9667L35.0241 43.9912L35.04 44.0154L37.5451 42.3648ZM47.8659 52.8976L46.3933 55.5113L46.4423 55.5389L46.4923 55.5646L47.8659 52.8976ZM50.4473 53.6936L50.4655 56.6936L50.5537 56.6931L50.6416 56.6873L50.4473 53.6936ZM52.5411 49.7632L49.7416 50.8416L52.5411 49.7632ZM49.9737 45.4728L47.5306 47.2138L47.5599 47.255L47.5906 47.2951L49.9737 45.4728ZM46.0807 40.2446L43.6639 42.022L43.6847 42.0503L43.7062 42.0781L46.0807 40.2446ZM42.0692 34.1206L39.4675 35.6143L39.473 35.6238L39.4785 35.6333L42.0692 34.1206ZM39.29 27.495L36.3874 28.2531L36.3925 28.2725L36.3978 28.2918L39.29 27.495ZM39.1421 20.578L36.2116 19.936L36.2079 19.9526L36.2045 19.9693L39.1421 20.578ZM51.9899 7.87843L51.249 4.97131L51.2373 4.97436L51.9899 7.87843ZM63.7751 8.49855L64.6829 5.6392L64.6757 5.63689L64.6684 5.63462L63.7751 8.49855ZM85.2314 25.4155L82.8183 27.1979L82.8183 27.1979L85.2314 25.4155ZM90.5717 35.308L91.8947 38.0006L94.2828 36.8272L93.403 34.3161L90.5717 35.308ZM76.4465 42.2482L73.6679 43.3793L74.8812 46.3598L77.7695 44.9408L76.4465 42.2482ZM72.1827 34.0928L69.6828 35.7512L69.6871 35.7577L69.6914 35.7641L72.1827 34.0928ZM63.1222 25.3453L64.3704 22.6173L63.1222 25.3453ZM60.3726 24.7408L60.0212 21.7615L59.9346 21.7717L59.8488 21.7869L60.3726 24.7408ZM58.3427 28.7274L55.5432 29.8058L55.5638 29.8592L55.5863 29.9117L58.3427 28.7274ZM60.9022 32.8978L58.5089 34.7066L58.514 34.7134L58.5191 34.7201L60.9022 32.8978ZM64.9152 38.1182L62.5407 39.9517L62.549 39.9623L64.9152 38.1182ZM68.9828 44.1783L66.3811 45.6721L66.3811 45.6721L68.9828 44.1783ZM71.6981 50.7479L68.7955 51.506L68.8005 51.5254L68.8059 51.5448L71.6981 50.7479ZM71.9099 57.7209L68.9723 57.1121L68.9723 57.1121L71.9099 57.7209ZM59.1104 70.2367L58.3696 67.3295L58.3578 67.3326L59.1104 70.2367ZM47.3891 69.6726L46.4958 72.5366L46.5123 72.5417L46.5289 72.5467L47.3891 69.6726ZM36.013 59.3111C32.4381 56.1722 29.3549 52.7459 26.7542 49.0327L21.8398 52.4748C24.7268 56.5967 28.1347 60.3782 32.0541 63.8197L36.013 59.3111ZM26.7542 49.0327C24.1262 45.2806 22.392 41.9245 21.4503 38.9544L15.7309 40.7679C16.9099 44.4862 18.98 48.3919 21.8398 52.4748L26.7542 49.0327ZM19.8526 42.5828L34.3532 35.8592L31.8293 30.4158L17.3286 37.1395L19.8526 42.5828ZM30.248 34.0944C31.3761 37.4465 32.9692 40.7375 35.0086 43.9667L40.0816 40.7628C38.2721 37.8977 36.8959 35.0371 35.9345 32.1806L30.248 34.0944ZM35.04 44.0154C37.1762 47.2573 39.5853 50.0716 42.2769 52.4349L46.2358 47.9263C43.9879 45.9525 41.9229 43.5563 40.0502 40.7141L35.04 44.0154ZM42.2769 52.4349C43.7831 53.7575 45.1678 54.8208 46.3933 55.5113L49.3384 50.2838C48.6467 49.8941 47.625 49.1462 46.2358 47.9263L42.2769 52.4349ZM46.4923 55.5646C47.6947 56.1839 49.0689 56.7021 50.4655 56.6936L50.429 50.6937C50.4735 50.6934 50.3998 50.7005 50.1743 50.631C49.9538 50.563 49.6453 50.4395 49.2395 50.2305L46.4923 55.5646ZM50.6416 56.6873C52.1019 56.5925 53.4462 55.9844 54.4542 54.8365L49.9456 50.8777C49.9755 50.8435 50.04 50.7864 50.1329 50.7421C50.2224 50.6993 50.2753 50.6985 50.2529 50.6999L50.6416 56.6873ZM54.4542 54.8365C56.0948 52.968 56.1066 50.6734 55.3405 48.6847L49.7416 50.8416C49.8598 51.1484 49.8271 51.2289 49.836 51.148C49.8408 51.105 49.8547 51.0453 49.8828 50.9825C49.9105 50.9207 49.9386 50.8856 49.9456 50.8777L54.4542 54.8365ZM55.3405 48.6847C54.7171 47.0665 53.6807 45.3817 52.3568 43.6505L47.5906 47.2951C48.724 48.7772 49.3992 49.9527 49.7416 50.8416L55.3405 48.6847ZM52.4169 43.7318C51.2421 42.0833 49.921 40.3094 48.4552 38.4111L43.7062 42.0781C45.1338 43.927 46.408 45.6385 47.5306 47.2138L52.4169 43.7318ZM48.4974 38.4671C47.154 36.6405 45.8745 34.688 44.6599 32.6079L39.4785 35.6333C40.7939 37.8861 42.1887 40.0162 43.6639 42.022L48.4974 38.4671ZM44.6709 32.6269C43.57 30.7093 42.7433 28.7342 42.1822 26.6981L36.3978 28.2918C37.0976 30.8317 38.1237 33.2737 39.4675 35.6143L44.6709 32.6269ZM42.1927 26.7368C41.7259 24.9496 41.6807 23.1122 42.0797 21.1868L36.2045 19.9693C35.6251 22.7652 35.6786 25.5391 36.3874 28.2531L42.1927 26.7368ZM42.0726 21.2201C42.4635 19.436 43.4735 17.4866 45.3269 15.3757L40.8183 11.4169C38.4842 14.0752 36.8738 16.9136 36.2116 19.936L42.0726 21.2201ZM45.3269 15.3757C47.3667 13.0527 49.8188 11.5402 52.7425 10.7825L51.2373 4.97436C47.1319 6.03829 43.6391 8.2044 40.8183 11.4169L45.3269 15.3757ZM52.7307 10.7855C55.6865 10.0323 59.0411 10.1646 62.8819 11.3625L64.6684 5.63462C59.9845 4.17372 55.4823 3.89258 51.2491 4.97134L52.7307 10.7855ZM62.8673 11.3579C66.6633 12.5631 70.7597 15.0041 75.1512 18.8601L79.11 14.3515C74.304 10.1314 69.4967 7.16757 64.6829 5.6392L62.8673 11.3579ZM75.1512 18.8601C78.0144 21.3741 80.569 24.1526 82.8183 27.1979L87.6446 23.6332C85.1393 20.2413 82.2934 17.1467 79.11 14.3515L75.1512 18.8601ZM82.8183 27.1979C85.0383 30.2035 86.6676 33.2377 87.7405 36.2999L93.403 34.3161C92.11 30.6255 90.1791 27.0647 87.6446 23.6332L82.8183 27.1979ZM89.2488 32.6155L75.1236 39.5557L77.7695 44.9408L91.8947 38.0006L89.2488 32.6155ZM79.2251 41.1171C77.9169 37.9034 76.4036 34.9995 74.674 32.4214L69.6914 35.7641C71.1627 37.9573 72.4919 40.4903 73.6679 43.3793L79.2251 41.1171ZM74.6826 32.4343C72.9901 29.8831 71.0604 27.6444 68.8873 25.7363L64.9284 30.2449C66.6727 31.7765 68.2596 33.6059 69.6828 35.7512L74.6826 32.4343ZM68.8873 25.7363C67.3393 24.3771 65.8254 23.283 64.3704 22.6173L61.8741 28.0733C62.571 28.3922 63.5808 29.0616 64.9284 30.2449L68.8873 25.7363ZM64.3704 22.6173C63.0477 22.0121 61.5471 21.5815 60.0212 21.7615L60.7241 27.7202C60.7037 27.7226 60.7796 27.7101 60.9837 27.755C61.1885 27.8 61.482 27.8939 61.8741 28.0733L64.3704 22.6173ZM59.8488 21.7869C58.5119 22.024 57.303 22.6593 56.3735 23.7179L60.8821 27.6767C60.8838 27.6748 60.8801 27.6792 60.871 27.6865C60.8667 27.69 60.8619 27.6935 60.8568 27.697C60.8517 27.7004 60.8468 27.7033 60.8426 27.7056C60.8337 27.7105 60.8307 27.711 60.8368 27.7089C60.8433 27.7067 60.8621 27.7008 60.8964 27.6947L59.8488 21.7869ZM56.3735 23.7179C54.727 25.593 54.8073 27.8955 55.5432 29.8058L61.1421 27.6489C61.081 27.4901 61.0557 27.3842 61.0458 27.3262C61.0361 27.2697 61.0425 27.2686 61.0386 27.3107C61.0343 27.3565 61.02 27.4276 60.9851 27.5084C60.9503 27.5889 60.9092 27.6458 60.8821 27.6767L56.3735 23.7179ZM55.5863 29.9117C56.2364 31.4246 57.2411 33.0291 58.5089 34.7066L63.2956 31.0889C62.1913 29.6278 61.4896 28.4521 61.099 27.5431L55.5863 29.9117ZM58.5191 34.7201C59.7511 36.3311 61.0916 38.075 62.5407 39.9517L67.2898 36.2847C65.8454 34.4142 64.5107 32.6779 63.2853 31.0755L58.5191 34.7201ZM62.549 39.9623C63.9505 41.7607 65.2279 43.6635 66.3811 45.6721L71.5845 42.6846C70.2929 40.435 68.8586 38.2977 67.2815 36.2741L62.549 39.9623ZM66.3811 45.6721C67.4783 47.5832 68.2785 49.5267 68.7955 51.506L74.6007 49.9898C73.942 47.4678 72.932 45.0317 71.5845 42.6846L66.3811 45.6721ZM68.8059 51.5448C69.3079 53.3669 69.3666 55.2093 68.9723 57.1121L74.8475 58.3296C75.4316 55.5111 75.3491 52.7048 74.5903 49.951L68.8059 51.5448ZM68.9723 57.1121C68.615 58.8367 67.649 60.7321 65.8372 62.7954L70.3459 66.7543C72.6469 64.1336 74.2265 61.3264 74.8475 58.3296L68.9723 57.1121ZM65.8372 62.7954C63.8533 65.0549 61.3918 66.5594 58.3696 67.3296L59.8512 73.1438C64.018 72.0819 67.544 69.9452 70.3459 66.7543L65.8372 62.7954ZM58.3578 67.3326C55.4857 68.0769 52.1476 67.9653 48.2492 66.7986L46.5289 72.5467C51.2299 73.9536 55.706 74.218 59.863 73.1407L58.3578 67.3326ZM48.2823 66.8087C44.5432 65.6425 40.4522 63.209 36.013 59.3111L32.0541 63.8197C36.8976 68.0726 41.7103 71.044 46.4958 72.5366L48.2823 66.8087ZM66.6259 88.3736L64.3716 86.3942L62.3921 88.6485L64.6465 90.6279L66.6259 88.3736ZM105.884 43.6632L107.864 41.4089L105.609 39.4295L103.63 41.6838L105.884 43.6632ZM120.958 56.8989L123.212 58.8783L125.192 56.624L122.938 54.6446L120.958 56.8989ZM81.6997 101.609L79.7203 103.864L81.9746 105.843L83.954 103.589L81.6997 101.609ZM68.8802 90.353L108.139 45.6426L103.63 41.6838L64.3716 86.3942L68.8802 90.353ZM103.905 45.9175L118.979 59.1532L122.938 54.6446L107.864 41.4089L103.905 45.9175ZM118.704 54.9195L79.4454 99.6299L83.954 103.589L123.212 58.8783L118.704 54.9195ZM83.6791 99.355L68.6053 86.1193L64.6465 90.6279L79.7203 103.864L83.6791 99.355ZM109.062 124.504L106.41 125.907L106.422 125.93L106.434 125.952L109.062 124.504ZM105.404 112.695L102.417 112.978L102.419 112.993L102.42 113.007L105.404 112.695ZM106.736 100.743L103.881 99.8221L106.736 100.743ZM123.337 81.8371L122.054 79.1251L123.337 81.8371ZM135.08 79.0268L135.003 76.0278L135.08 79.0268ZM147.27 81.2469L146.174 84.0395L146.185 84.0437L146.196 84.0478L147.27 81.2469ZM168.857 101.107L166.146 102.391L166.152 102.403L168.857 101.107ZM171.872 115.065L171.876 118.065L174.764 118.061L174.87 115.175L171.872 115.065ZM154.768 115.092L151.768 115.075L151.752 118.096L154.773 118.092L154.768 115.092ZM153.366 107.413L150.564 108.486L150.581 108.529L150.599 108.572L153.366 107.413ZM143.851 98.1528L144.912 95.347L144.898 95.3414L144.883 95.3359L143.851 98.1528ZM138.503 97.4159L138.763 100.405L138.763 100.405L138.503 97.4159ZM133.246 99.022L134.662 101.667L133.246 99.022ZM125.114 108.283L122.319 107.194L122.314 107.208L122.308 107.222L125.114 108.283ZM124.201 113.703L127.198 113.575L124.201 113.703ZM125.504 118.919L122.791 120.2L122.816 120.254L122.844 120.307L125.504 118.919ZM134.949 127.099L133.806 129.873L133.838 129.886L133.871 129.899L134.949 127.099ZM142.758 128.64L145.756 128.751L145.864 125.839L142.956 125.647L142.758 128.64ZM142.104 146.39L141.718 149.366L144.981 149.789L145.102 146.501L142.104 146.39ZM129.077 142.418L127.78 145.123L129.077 142.418ZM130.693 132.977L128.438 130.998L126.728 132.946L128.408 134.921L130.693 132.977ZM145.611 115.987L147.59 113.733L145.336 111.753L143.357 114.008L145.611 115.987ZM158.705 127.484L160.959 129.464L162.938 127.209L160.684 125.23L158.705 127.484ZM142.104 146.39L139.819 148.334L142.068 150.978L144.358 148.37L142.104 146.39ZM119.611 132.715C116.224 129.741 113.598 126.519 111.689 123.056L106.434 125.952C108.713 130.087 111.8 133.842 115.652 137.224L119.611 132.715ZM111.713 123.1C109.87 119.617 108.771 116.05 108.388 112.384L102.42 113.007C102.887 117.476 104.226 121.782 106.41 125.907L111.713 123.1ZM108.391 112.412C108.048 108.796 108.443 105.222 109.591 101.664L103.881 99.8221C102.488 104.139 101.996 108.532 102.417 112.978L108.391 112.412ZM109.591 101.664C110.722 98.1579 112.651 94.8181 115.438 91.6432L110.93 87.6843C107.661 91.4076 105.29 95.4541 103.881 99.8221L109.591 101.664ZM115.438 91.6432C118.226 88.4683 121.289 86.1243 124.619 84.5491L122.054 79.1251C117.905 81.0873 114.199 83.9611 110.93 87.6843L115.438 91.6432ZM124.619 84.5491C127.986 82.9569 131.49 82.1199 135.157 82.0258L135.003 76.0278C130.492 76.1435 126.167 77.18 122.054 79.1251L124.619 84.5491ZM135.157 82.0258C138.821 81.9319 142.487 82.5921 146.174 84.0395L148.366 78.4543C143.978 76.7319 139.517 75.912 135.003 76.0278L135.157 82.0258ZM146.196 84.0478C149.945 85.4862 153.556 87.7041 157.025 90.75L160.983 86.2414C157.043 82.7816 152.831 80.1669 148.345 78.4459L146.196 84.0478ZM157.025 90.75C161.2 94.416 164.209 98.3019 166.146 102.391L171.569 99.8224C169.225 94.8737 165.665 90.3523 160.983 86.2414L157.025 90.75ZM166.152 102.403C168.139 106.55 169.028 110.722 168.874 114.956L174.87 115.175C175.062 109.909 173.942 104.776 171.563 99.8104L166.152 102.403ZM171.867 112.065L154.763 112.092L154.773 118.092L171.876 118.065L171.867 112.065ZM157.768 115.108C157.785 111.916 157.262 108.947 156.133 106.253L150.599 108.572C151.37 110.413 151.782 112.563 151.768 115.075L157.768 115.108ZM156.168 106.34C155.107 103.571 153.37 101.161 151.038 99.1139L147.079 103.623C148.75 105.09 149.884 106.71 150.564 108.486L156.168 106.34ZM151.038 99.1139C149.145 97.4515 147.104 96.1764 144.912 95.347L142.789 100.959C144.22 101.5 145.651 102.369 147.079 103.623L151.038 99.1139ZM144.883 95.3359C142.72 94.5433 140.496 94.2304 138.242 94.4272L138.763 100.405C140.102 100.288 141.444 100.466 142.818 100.97L144.883 95.3359ZM138.242 94.4272C136.012 94.6219 133.869 95.2859 131.831 96.3771L134.662 101.667C136.038 100.93 137.4 100.523 138.763 100.405L138.242 94.4272ZM131.831 96.3771C129.75 97.4909 127.856 99.0686 126.131 101.032L130.64 104.991C131.982 103.463 133.328 102.381 134.662 101.667L131.831 96.3771ZM126.131 101.032C124.468 102.927 123.182 104.98 122.319 107.194L127.909 109.373C128.492 107.879 129.387 106.418 130.64 104.991L126.131 101.032ZM122.308 107.222C121.49 109.384 121.109 111.594 121.204 113.831L127.198 113.575C127.14 112.208 127.367 110.805 127.92 109.345L122.308 107.222ZM121.204 113.831C121.298 116.044 121.834 118.174 122.791 120.2L128.216 117.638C127.591 116.314 127.258 114.967 127.198 113.575L121.204 113.831ZM122.844 120.307C123.909 122.349 125.401 124.179 127.258 125.81L131.217 121.301C129.838 120.09 128.841 118.829 128.163 117.531L122.844 120.307ZM127.258 125.81C129.211 127.524 131.397 128.88 133.806 129.873L136.092 124.326C134.292 123.584 132.671 122.578 131.217 121.301L127.258 125.81ZM133.871 129.899C136.371 130.862 139.289 131.417 142.561 131.634L142.956 125.647C140.098 125.458 137.809 124.986 136.027 124.3L133.871 129.899ZM139.76 128.53L139.106 146.28L145.102 146.501L145.756 128.751L139.76 128.53ZM142.49 143.415C138.504 142.899 134.468 141.676 130.374 139.713L127.78 145.123C132.389 147.333 137.038 148.759 141.718 149.366L142.49 143.415ZM130.374 139.713C126.244 137.732 122.663 135.396 119.611 132.715L115.652 137.224C119.157 140.302 123.207 142.93 127.78 145.123L130.374 139.713ZM132.947 134.957L147.865 117.967L143.357 114.008L128.438 130.998L132.947 134.957ZM143.631 118.242L156.725 129.739L160.684 125.23L147.59 113.733L143.631 118.242ZM156.45 125.505L139.85 144.411L144.358 148.37L160.959 129.464L156.45 125.505ZM144.389 144.447L132.978 131.033L128.408 134.921L139.819 148.334L144.389 144.447ZM150.82 162.301L148.565 160.322L146.586 162.576L148.84 164.555L150.82 162.301ZM190.078 117.591L192.058 115.336L189.803 113.357L187.824 115.611L190.078 117.591ZM202.469 128.471L205.468 128.544L205.503 127.142L204.449 126.216L202.469 128.471ZM201.316 175.646L199.337 177.9L204.158 182.134L204.315 175.719L201.316 175.646ZM195.568 170.598L193.313 168.619L191.334 170.873L193.588 172.853L195.568 170.598ZM219.459 143.389L221.439 141.135L219.184 139.155L217.205 141.41L219.459 143.389ZM234.15 156.288L236.404 158.268L238.384 156.013L236.129 154.034L234.15 156.288ZM194.891 200.999L192.912 203.253L195.166 205.232L197.146 202.978L194.891 200.999ZM182.5 190.118L179.501 190.045L179.467 191.447L180.521 192.373L182.5 190.118ZM183.653 142.943L185.633 140.689L180.811 136.455L180.654 142.87L183.653 142.943ZM189.402 147.991L191.656 149.97L193.636 147.716L191.381 145.736L189.402 147.991ZM165.51 175.2L163.531 177.454L165.785 179.434L167.765 177.18L165.51 175.2ZM153.074 164.28L192.332 119.57L187.824 115.611L148.565 160.322L153.074 164.28ZM188.099 119.845L200.49 130.725L204.449 126.216L192.058 115.336L188.099 119.845ZM199.47 128.397L198.317 175.573L204.315 175.719L205.468 128.544L199.47 128.397ZM203.296 173.392L197.547 168.344L193.588 172.853L199.337 177.9L203.296 173.392ZM197.822 172.578L221.714 145.368L217.205 141.41L193.313 168.619L197.822 172.578ZM217.48 145.643L232.17 158.542L236.129 154.034L221.439 141.135L217.48 145.643ZM231.896 154.309L192.637 199.019L197.146 202.978L236.404 158.268L231.896 154.309ZM196.871 198.744L184.48 187.864L180.521 192.373L192.912 203.253L196.871 198.744ZM185.499 190.192L186.652 143.016L180.654 142.87L179.501 190.045L185.499 190.192ZM181.674 145.197L187.422 150.245L191.381 145.736L185.633 140.689L181.674 145.197ZM187.148 146.011L163.256 173.221L167.765 177.18L191.656 149.97L187.148 146.011ZM167.49 172.946L152.799 160.047L148.84 164.555L163.531 177.454L167.49 172.946Z" fill="white" fill-opacity="0.3" mask="url(#path-3-outside-2_624_39)"/>
</svg>
